<svg xmlns="http://www.w3.org/2000/svg" width="255" height="109" viewBox="0 0 255 109">
  <g id="Group_10" data-name="Group 10" transform="translate(-833 -486)">
    <text id="Bo" transform="translate(833 567)" fill="#fff" font-size="80" font-family="Nunito-Regular, Nunito"><tspan x="0" y="0">Bo</tspan></text>
    <text id="tie" transform="translate(1000 567)" fill="#fff" font-size="80" font-family="Nunito-Regular, Nunito"><tspan x="0" y="0">tie</tspan></text>
    <g id="Group_9" data-name="Group 9">
      <g id="Group_8" data-name="Group 8">
        <path id="Path_1" data-name="Path 1" d="M1662.85,600.8v18.8l27.8-10.8,27,10.8V600.8" transform="translate(-726 -55)" fill="none" stroke="#fff" stroke-linejoin="round" stroke-width="6"/>
        <path id="Path_2" data-name="Path 2" d="M1662.85,600.8v18.8l27.8-10.8,27,10.8V600.8" transform="translate(2654.5 1144.4) rotate(180)" fill="none" stroke="#575fe6" stroke-linejoin="round" stroke-width="6"/>
      </g>
      <g id="Group_7" data-name="Group 7" transform="translate(3 -4)">
        <circle id="Ellipse_2" data-name="Ellipse 2" cx="2.5" cy="2.5" r="2.5" transform="translate(968 546)" fill="#575fe6"/>
        <circle id="Ellipse_3" data-name="Ellipse 3" cx="2.5" cy="2.5" r="2.5" transform="translate(978 546)" fill="#575fe6"/>
        <circle id="Ellipse_1" data-name="Ellipse 1" cx="2.5" cy="2.5" r="2.5" transform="translate(973 541)" fill="#575fe6"/>
        <circle id="Ellipse_4" data-name="Ellipse 4" cx="2.5" cy="2.5" r="2.5" transform="translate(973 551)" fill="#575fe6"/>
      </g>
      <g id="Group_6" data-name="Group 6" transform="translate(4 -4)">
        <g id="Group_2" data-name="Group 2" transform="translate(0 1)">
          <rect id="Rectangle_1" data-name="Rectangle 1" width="4" height="4" transform="translate(948 545) rotate(180)" fill="#575fe6"/>
          <path id="Polygon_1" data-name="Polygon 1" d="M2,0,4,2H0Z" transform="translate(948 547) rotate(180)" fill="#575fe6"/>
        </g>
        <g id="Group_3" data-name="Group 3" transform="translate(1892 1097) rotate(180)">
          <rect id="Rectangle_1-2" data-name="Rectangle 1" width="4" height="4" transform="translate(948 545) rotate(180)" fill="#575fe6"/>
          <path id="Polygon_1-2" data-name="Polygon 1" d="M2,0,4,2H0Z" transform="translate(948 547) rotate(180)" fill="#575fe6"/>
        </g>
        <g id="Group_4" data-name="Group 4" transform="translate(1494 -397) rotate(90)">
          <rect id="Rectangle_1-3" data-name="Rectangle 1" width="4" height="4" transform="translate(948 545) rotate(180)" fill="#575fe6"/>
          <path id="Polygon_1-3" data-name="Polygon 1" d="M2,0,4,2H0Z" transform="translate(948 547) rotate(180)" fill="#575fe6"/>
        </g>
        <g id="Group_5" data-name="Group 5" transform="translate(398 1495) rotate(-90)">
          <rect id="Rectangle_1-4" data-name="Rectangle 1" width="4" height="4" transform="translate(948 545) rotate(180)" fill="#575fe6"/>
          <path id="Polygon_1-4" data-name="Polygon 1" d="M2,0,4,2H0Z" transform="translate(948 547) rotate(180)" fill="#575fe6"/>
        </g>
      </g>
    </g>
  </g>
</svg>
