<svg xmlns="http://www.w3.org/2000/svg" width="210.931" height="166.867" viewBox="0 0 210.931 166.867">
  <g id="Logo" transform="translate(-381.324 -271.723)">
    <g id="bow" transform="matrix(-0.719, -0.695, 0.695, -0.719, 488.638, 464.374)">
      <g id="Group_2" data-name="Group 2" transform="translate(21.411 21.049)">
        <g id="Group_1" data-name="Group 1">
          <path id="Path_5" data-name="Path 5" d="M142.934,28.937a2.548,2.548,0,0,0-3.6,0L29.408,138.858a2.548,2.548,0,1,0,3.6,3.6L142.934,32.54A2.548,2.548,0,0,0,142.934,28.937Z" transform="translate(-28.661 -28.19)" fill="#eef7ff"/>
        </g>
      </g>
      <g id="Group_4" data-name="Group 4" transform="translate(37.118 0)">
        <g id="Group_3" data-name="Group 3">
          <path id="Path_6" data-name="Path 6" d="M157.224,12.044C121.991-6.371,81.179-3.5,50.71,19.518a2.549,2.549,0,1,0,3.073,4.066C82.665,1.758,121.4-.933,154.86,16.559a3.367,3.367,0,0,1,1.423,4.539,3.36,3.36,0,0,1-4.534,1.422C121.544,6.733,86.285,8.662,59.735,27.558a2.548,2.548,0,1,0,2.956,4.152c24.981-17.776,58.2-19.567,86.7-4.673a8.459,8.459,0,0,0,7.835-14.994Z" transform="translate(-49.697 0)" fill="#eef7ff"/>
        </g>
      </g>
      <g id="Group_6" data-name="Group 6" transform="translate(0.044 38.933)">
        <g id="Group_5" data-name="Group 5">
          <path id="Path_7" data-name="Path 7" d="M29.785,61.558a2.549,2.549,0,0,0-3.536.7C8.613,88.531,7.18,123.071,22.507,152.395a3.362,3.362,0,1,1-5.961,3.111C-.5,122.894,1.7,84.833,22.277,56.179a2.548,2.548,0,1,0-4.139-2.972c-21.711,30.227-24.052,70.33-6.109,104.662a8.459,8.459,0,1,0,14.994-7.835C12.563,122.366,13.888,89.82,30.482,65.094A2.549,2.549,0,0,0,29.785,61.558Z" transform="translate(-0.044 -52.144)" fill="#eef7ff"/>
        </g>
      </g>
      <g id="Group_8" data-name="Group 8" transform="translate(18.575 20.389)">
        <g id="Group_7" data-name="Group 7">
          <path id="Path_8" data-name="Path 8" d="M56.231,35.279,50.252,29.3a6.822,6.822,0,0,0-9.638,0L26.856,43.058a6.822,6.822,0,0,0,0,9.639l5.98,5.979a2.551,2.551,0,0,0,3.6,0L56.231,38.882A2.548,2.548,0,0,0,56.231,35.279ZM34.636,53.27l-4.178-4.177a1.723,1.723,0,0,1,0-2.431L44.218,32.9a1.721,1.721,0,0,1,2.43,0l4.177,4.177Z" transform="translate(-24.862 -27.307)" fill="#eef7ff"/>
        </g>
      </g>
    </g>
    <g id="tie" transform="translate(453.555 274.798)">
      <g id="Group_9" data-name="Group 9" transform="translate(0 84)">
        <path id="Path_9" data-name="Path 9" d="M61.147,84.676A1.614,1.614,0,0,0,59.929,84c-11.093.947-19.886,9.47-21.915,11.364H27.6C25.568,93.334,16.775,84.947,5.682,84a1.268,1.268,0,0,0-1.218.676A37.7,37.7,0,0,0,0,102.4v.406a35.961,35.961,0,0,0,4.464,17.722,1.421,1.421,0,0,0,1.218.676h.135c11.364-.947,20.292-9.875,22.051-11.5H38.014c1.488,1.623,10.417,10.417,21.78,11.5h.135a1.614,1.614,0,0,0,1.218-.676A37.7,37.7,0,0,0,65.611,102.8V102.4A35.961,35.961,0,0,0,61.147,84.676ZM25.7,101.181H21.645a1.353,1.353,0,1,0,0,2.706H25.7v3.923c-1.759,1.759-9.6,9.334-19.345,10.552a35.2,35.2,0,0,1-3.653-15.692v-.135A35.394,35.394,0,0,1,6.358,86.706c9.6,1.218,17.586,8.793,19.345,10.552Zm11.5,5.682H28.274V97.934H37.2ZM62.77,102.4v.406A35.2,35.2,0,0,1,59.117,118.5c-9.6-1.218-17.586-8.793-19.345-10.552v-4.058h4.058a1.353,1.353,0,0,0,0-2.706H39.772V97.257c1.759-1.759,9.74-9.334,19.345-10.552A33.405,33.405,0,0,1,62.77,102.4Z" transform="translate(0 -84)" fill="#eef7ff"/>
      </g>
    </g>
    <text id="Bowtie" transform="translate(411 349)" fill="#eef7ff" font-size="45" font-family="Nunito-ExtraBold, Nunito" font-weight="800"><tspan x="0" y="0">Bowtie</tspan></text>
  </g>
</svg>
