<?xml version="1.0" standalone="no"?>
<!DOCTYPE svg PUBLIC "-//W3C//DTD SVG 20010904//EN"
 "http://www.w3.org/TR/2001/REC-SVG-20010904/DTD/svg10.dtd">
<svg version="1.0" xmlns="http://www.w3.org/2000/svg"
 width="976.000000pt" height="976.000000pt" viewBox="0 0 976.000000 976.000000"
 preserveAspectRatio="xMidYMid meet">
<metadata>
Created by potrace 1.11, written by Peter Selinger 2001-2013
</metadata>
<g transform="translate(0.000000,976.000000) scale(0.100000,-0.100000)"
fill="#000000" stroke="none">
<path d="M349 8527 c-151 -51 -251 -146 -311 -296 l-23 -56 -3 -1562 -2 -1561
480 0 480 0 1 56 c0 32 0 549 0 1150 0 736 3 1092 10 1092 9 0 348 -132 424
-165 17 -7 62 -25 100 -40 39 -15 76 -32 84 -39 8 -6 15 -10 15 -8 1 4 30 -5
71 -23 17 -7 41 -16 55 -20 14 -4 45 -16 70 -27 25 -11 54 -24 65 -29 11 -5
45 -18 75 -29 30 -11 64 -24 75 -29 11 -5 36 -16 57 -25 20 -9 39 -16 42 -16
4 0 23 -7 44 -17 20 -9 39 -17 42 -17 7 -2 216 -85 265 -106 22 -9 78 -32 125
-49 47 -18 99 -39 115 -46 36 -15 52 -22 175 -72 52 -21 97 -38 100 -39 3 0
19 -6 35 -13 46 -21 135 -56 165 -66 14 -5 68 -27 85 -35 11 -5 67 -28 125
-50 58 -23 116 -46 130 -52 14 -6 35 -15 48 -19 34 -14 64 -26 102 -42 29 -12
117 -46 245 -97 11 -4 32 -12 48 -19 15 -6 37 -15 50 -20 12 -4 33 -13 47 -19
14 -6 50 -21 80 -32 86 -34 92 -37 142 -59 26 -12 54 -21 61 -21 7 0 17 -4 22
-8 17 -15 300 -123 356 -136 61 -14 154 -13 215 3 22 6 116 40 210 76 93 37
228 89 299 117 121 46 169 66 220 88 17 7 52 19 75 25 3 1 19 8 35 15 17 7 32
14 35 15 3 1 18 7 33 13 15 7 40 15 55 18 15 4 32 10 37 14 6 4 75 32 155 63
80 31 186 72 235 92 50 20 98 37 108 38 9 0 17 4 17 8 0 4 12 10 28 15 37 10
72 23 117 43 11 5 88 35 170 66 83 31 164 63 180 70 39 18 217 87 230 89 6 2
27 10 49 19 21 9 44 17 50 17 7 0 16 4 22 8 7 7 145 63 164 68 3 0 19 6 35 13
17 7 95 37 175 67 80 31 149 60 154 65 6 5 19 9 31 9 12 0 25 4 31 8 5 5 38
19 74 32 36 13 69 27 74 32 6 4 19 8 31 8 12 0 25 4 31 9 5 5 38 20 74 34 108
39 413 158 447 173 17 8 34 14 38 14 4 0 21 6 38 14 61 26 88 36 96 36 4 0 8
-514 9 -1142 0 -629 1 -1148 1 -1155 1 -8 121 -11 479 -10 l477 2 2 1535 c2
1018 -1 1550 -8 1580 -15 68 -54 147 -102 206 -41 51 -152 134 -179 134 -8 0
-18 4 -24 8 -17 16 -124 33 -186 31 -61 -2 -202 -45 -321 -97 -26 -12 -49 -22
-52 -22 -8 -1 -397 -151 -480 -185 -11 -5 -22 -9 -25 -9 -7 -2 -217 -84 -405
-159 -82 -32 -154 -60 -160 -61 -5 -2 -21 -8 -35 -13 -14 -6 -72 -29 -130 -51
-58 -22 -126 -50 -153 -61 -26 -11 -49 -21 -52 -21 -9 -1 -113 -41 -165 -63
-14 -6 -27 -11 -30 -11 -6 -1 -133 -50 -185 -71 -94 -38 -201 -80 -205 -80 -3
0 -24 -8 -45 -17 -22 -9 -92 -37 -155 -61 -63 -25 -153 -60 -200 -78 -47 -18
-87 -34 -90 -34 -3 -1 -16 -6 -30 -12 -14 -6 -86 -34 -160 -62 -74 -28 -144
-56 -155 -61 -11 -5 -49 -20 -85 -33 -97 -36 -282 -108 -305 -118 -11 -5 -74
-29 -140 -55 -213 -81 -250 -95 -270 -105 -48 -22 -391 -152 -401 -152 -10 0
-100 34 -169 64 -49 21 -622 250 -635 254 -13 4 -328 131 -390 158 -14 5 -27
11 -30 11 -7 2 -71 26 -105 41 -16 8 -52 22 -80 33 -27 10 -59 23 -70 27 -11
5 -22 9 -25 10 -3 1 -14 6 -25 10 -104 45 -363 145 -372 145 -7 0 -13 5 -13
10 0 6 -3 9 -7 8 -7 -2 -616 237 -638 251 -5 3 -12 6 -15 6 -7 0 -170 65 -205
81 -32 15 -503 203 -520 208 -5 2 -21 8 -35 13 -14 6 -196 79 -405 162 -209
83 -391 157 -405 163 -14 6 -29 12 -35 14 -74 18 -104 22 -163 22 -45 0 -92
-7 -133 -21z"/>
<path d="M7044 6089 c-112 -38 -210 -133 -249 -242 -22 -58 -29 -192 -13 -242
42 -132 160 -252 278 -282 44 -11 180 -12 213 -1 117 37 230 136 267 235 26
67 36 201 18 254 -38 115 -113 209 -203 253 -72 35 -83 38 -175 42 -58 3 -89
-1 -136 -17z"/>
<path d="M2279 5923 c-1 -59 0 -320 2 -329 1 -5 0 -13 -1 -19 -1 -5 -2 -68 -2
-138 l0 -128 161 -161 161 -161 166 166 c147 148 164 169 154 187 -6 12 -7 20
-1 20 6 0 6 11 1 29 -4 16 -6 32 -3 35 8 7 5 184 -2 196 -3 6 -1 10 5 10 7 0
9 8 4 23 -4 12 -6 29 -6 37 4 41 2 161 -3 169 -3 5 -1 11 3 13 5 1 7 20 4 41
l-4 37 -319 0 -319 0 -1 -27z"/>
<path d="M6296 5303 c-2 -2 -15 -6 -28 -8 -89 -16 -217 -120 -256 -205 -37
-84 -42 -103 -43 -190 -1 -129 75 -262 190 -334 168 -104 393 -65 519 90 77
94 106 231 77 359 -19 85 -115 204 -197 244 -26 12 -49 21 -50 20 -2 -1 -14 4
-28 11 -22 12 -174 23 -184 13z"/>
<path d="M7872 5295 c-30 -7 -59 -18 -65 -24 -6 -6 -17 -11 -24 -11 -15 0 -43
-22 -95 -75 -64 -65 -68 -71 -68 -88 0 -9 -4 -18 -10 -22 -12 -8 -29 -67 -36
-131 -7 -60 10 -151 39 -214 28 -60 150 -182 189 -189 10 -2 34 -9 56 -18 51
-19 141 -20 212 -3 100 24 206 104 244 184 9 19 20 38 25 40 5 3 12 23 16 43
5 21 10 45 12 53 11 47 3 133 -18 199 -36 114 -157 227 -274 256 -52 13 -148
13 -203 0z"/>
<path d="M1478 5144 c-6 -5 -1 -621 5 -630 3 -5 143 -9 320 -9 l314 0 161 161
161 161 -161 161 -161 161 -318 -1 c-176 -1 -320 -2 -321 -4z"/>
<path d="M3083 5143 c-7 -3 -82 -75 -168 -161 l-155 -156 160 -160 161 -161
319 0 c176 0 320 2 321 5 1 7 1 612 0 626 -1 8 -92 11 -313 11 -172 0 -319 -2
-325 -4z"/>
<path d="M10 3152 l1 -1547 21 -65 c54 -164 195 -294 357 -329 44 -10 177 -8
219 2 20 5 240 89 312 120 14 5 30 11 35 12 6 2 55 21 110 43 55 21 150 58
210 81 61 23 119 47 130 52 11 5 49 20 85 33 36 13 79 30 95 37 17 7 32 13 35
14 8 1 303 116 325 126 31 13 179 71 190 74 6 1 21 7 35 12 22 9 122 49 610
238 52 20 104 40 115 45 104 41 233 91 250 96 6 2 102 39 215 84 113 45 246
96 295 115 50 19 109 42 130 51 22 10 45 19 50 20 13 2 113 41 140 54 26 12
469 183 645 249 46 18 89 36 96 41 6 6 13 7 17 4 3 -3 16 1 29 9 12 8 34 18
48 22 14 4 45 16 70 27 24 11 54 20 65 20 15 0 846 -328 940 -371 11 -5 175
-71 365 -146 190 -76 350 -140 355 -143 6 -4 15 -7 20 -8 8 -2 1000 -397 1142
-456 16 -6 33 -12 38 -14 25 -7 512 -205 527 -214 10 -5 22 -10 28 -10 6 0 29
-8 53 -19 68 -30 111 -46 120 -43 4 1 7 -2 7 -8 0 -5 6 -10 13 -10 11 0 131
-46 182 -70 30 -13 269 -108 360 -142 104 -39 204 -47 300 -23 39 10 82 26 97
36 14 11 31 19 37 19 21 0 150 137 174 186 60 119 57 28 57 1706 l0 1537 -480
0 c-362 0 -480 -3 -481 -12 0 -7 -1 -526 -1 -1154 -1 -628 -4 -1140 -8 -1138
-8 5 -61 27 -72 30 -5 2 -11 4 -15 5 -5 1 -11 2 -15 1 -5 0 -8 4 -8 10 0 5 -4
8 -9 4 -5 -3 -12 -1 -15 4 -3 5 -18 12 -32 15 -25 7 -100 38 -136 57 -10 5
-24 9 -31 9 -8 0 -27 6 -43 14 -43 21 -91 41 -169 71 -38 15 -81 32 -95 38
-14 6 -27 11 -30 12 -6 2 -39 15 -120 48 -30 12 -57 22 -60 22 -3 1 -23 9 -45
19 -22 10 -57 24 -78 32 -20 7 -52 20 -70 28 -17 8 -84 35 -147 59 -63 25
-128 51 -145 58 -16 7 -34 13 -40 15 -12 3 -601 240 -630 253 -11 5 -63 26
-115 46 -52 20 -108 43 -125 50 -51 22 -309 125 -325 130 -13 3 -49 18 -175
70 -11 4 -24 9 -30 11 -10 3 -633 253 -670 269 -11 4 -22 9 -25 10 -3 1 -18 7
-35 14 -44 19 -154 61 -203 78 -48 16 -153 21 -217 11 -22 -4 -78 -21 -125
-39 -47 -17 -103 -38 -125 -46 -22 -8 -46 -19 -52 -25 -7 -6 -13 -7 -13 -3 0
4 -6 2 -13 -4 -8 -6 -22 -12 -33 -14 -10 -2 -30 -9 -44 -14 -14 -6 -56 -23
-95 -38 -38 -15 -79 -31 -90 -36 -11 -4 -92 -36 -180 -70 -88 -33 -169 -65
-180 -70 -11 -4 -72 -28 -135 -53 -63 -24 -216 -83 -340 -132 -124 -48 -245
-95 -270 -104 -114 -43 -368 -143 -397 -156 -17 -8 -36 -14 -42 -14 -6 0 -19
-4 -29 -10 -21 -12 -193 -80 -203 -80 -3 0 -28 -10 -55 -22 -27 -12 -51 -22
-54 -23 -3 0 -11 -4 -17 -8 -7 -5 -13 -5 -13 -2 0 3 -12 0 -27 -8 -16 -8 -73
-32 -128 -53 -55 -20 -119 -45 -142 -56 -23 -10 -44 -18 -47 -18 -5 0 -214
-80 -261 -100 -18 -7 -52 -21 -65 -25 -3 -1 -18 -7 -35 -14 -16 -6 -77 -30
-135 -52 -58 -23 -114 -45 -125 -50 -23 -10 -287 -113 -295 -114 -3 -1 -18 -7
-33 -13 -16 -7 -34 -12 -42 -12 -8 0 -17 -4 -20 -10 -3 -5 -12 -10 -20 -10
-12 0 -14 175 -14 1113 0 611 0 1131 -1 1154 l0 42 -480 0 -480 0 0 -1547z"/>
<path d="M2465 4534 c-66 -68 -135 -139 -153 -157 l-34 -34 0 -194 c0 -107 1
-197 2 -201 3 -10 3 -46 0 -55 -5 -21 -1 -175 5 -181 4 -4 148 -7 321 -7 309
-1 314 0 315 20 2 40 -2 128 -6 136 -3 4 -1 9 4 11 6 2 7 17 2 41 -5 20 -5 39
-1 42 4 3 4 21 0 40 -5 21 -4 35 2 35 5 0 6 10 2 23 -4 12 -6 29 -6 37 5 43 2
162 -3 170 -3 6 -2 10 4 10 11 0 5 53 -9 79 -13 25 -304 311 -315 310 -5 -1
-64 -57 -130 -125z"/>
<path d="M7126 4503 c-2 -2 -19 -5 -37 -7 -19 -2 -60 -16 -91 -31 -60 -28
-153 -107 -141 -118 3 -4 1 -7 -5 -7 -6 0 -21 -18 -32 -39 -65 -129 -66 -264
-1 -389 23 -45 93 -122 109 -122 7 0 12 -4 12 -9 0 -9 56 -39 105 -57 93 -34
225 -21 319 32 54 30 142 116 152 148 3 12 12 28 19 36 19 23 28 77 29 175 0
78 -4 98 -28 153 -16 34 -33 62 -37 62 -5 0 -9 5 -9 11 0 11 -37 49 -90 92
-27 22 -93 52 -140 62 -37 9 -128 14 -134 8z"/>
</g>
</svg>
